<?xml version="1.0" encoding="UTF-8" standalone="no"?>
<!DOCTYPE svg PUBLIC "-//W3C//DTD SVG 1.1//EN" "http://www.w3.org/Graphics/SVG/1.1/DTD/svg11.dtd">
<svg width="100%" height="100%" viewBox="0 0 497 158" version="1.1" xmlns="http://www.w3.org/2000/svg" xmlns:xlink="http://www.w3.org/1999/xlink" xml:space="preserve" xmlns:serif="http://www.serif.com/" style="fill-rule:evenodd;clip-rule:evenodd;stroke-linejoin:round;stroke-miterlimit:2;">
    <g transform="matrix(1,0,0,1,-149,-93)">
        <path d="M300.56,229.933C301.076,229.933 301.597,230.006 302.094,230.15C302.941,230.399 303.733,230.856 304.398,231.522L304.548,231.667C306.146,233.265 306.54,235.619 305.72,237.588C305.458,238.23 305.068,238.828 304.548,239.348L295.345,248.551C294.834,249.062 294.237,249.46 293.587,249.728L293.582,249.728C293.58,249.728 293.579,249.729 293.577,249.729C292.926,250 292.23,250.14 291.507,250.14C290.054,250.14 288.691,249.574 287.668,248.551L287.518,248.402C286.853,247.736 286.396,246.935 286.147,246.093C285.608,244.246 286.065,242.173 287.518,240.72L296.717,231.522C297.776,230.463 299.166,229.933 300.56,229.933ZM176.268,151.877C176.766,152.375 176.927,153.116 176.7,153.783C174.895,159.079 173.916,164.757 173.916,170.656C173.916,199.608 197.473,223.165 226.426,223.165C232.325,223.165 238.002,222.187 243.298,220.382C243.965,220.154 244.707,220.316 245.205,220.814L258.065,233.674C258.931,234.54 258.705,235.998 257.598,236.524C248.143,241.019 237.574,243.536 226.426,243.536C208.385,243.536 191.855,236.948 179.116,226.053C178.51,225.535 177.639,225.456 176.959,225.873L168.353,231.155C167.135,231.902 165.736,230.503 166.483,229.286L170.449,222.821L172.445,219.571L173.839,217.303C173.852,217.281 173.883,217.238 173.884,217.236L177.071,211.994C177.306,211.604 176.881,211.147 176.474,211.36L170.202,214.613C169.427,215.015 168.473,214.808 167.951,214.108C158.906,201.97 153.546,186.928 153.546,170.656C153.546,159.508 156.062,148.939 160.557,139.483C161.083,138.377 162.542,138.15 163.408,139.017L176.268,151.877ZM271.1,198.223L295.829,222.952C296.83,223.953 296.345,225.733 295.135,226.471C294.443,226.892 293.791,227.402 293.195,228L283.996,237.198C283.408,237.789 282.898,238.437 282.473,239.131C281.732,240.34 279.945,240.828 278.941,239.825L268.936,229.82L254.27,215.153L239.209,200.096C238.271,199.159 238.626,197.565 239.872,197.113L248.397,194.025C248.9,193.843 249.297,193.447 249.481,192.944L252.879,183.643C253.333,182.4 254.924,182.048 255.86,182.984L271.1,198.223ZM226.426,97.776C244.885,97.776 261.767,104.67 274.62,116.028C275.226,116.563 276.111,116.65 276.8,116.227L283.897,111.872C285.115,111.125 286.513,112.523 285.766,113.741L280.687,122.017C280.679,122.03 280.686,122.051 280.696,122.063C280.704,122.073 280.701,122.083 280.694,122.094L276.5,128.996C276.26,129.385 276.69,129.843 277.093,129.63L282.676,126.735C283.451,126.333 284.406,126.54 284.927,127.241C293.955,139.374 299.306,154.402 299.306,170.656C299.306,181.677 296.846,192.14 292.447,201.513C291.925,202.625 290.462,202.856 289.593,201.987L276.7,189.094C276.205,188.599 276.042,187.863 276.264,187.199C277.998,181.994 278.936,176.432 278.936,170.656C278.936,141.703 255.379,118.146 226.426,118.146C220.65,118.146 215.087,119.083 209.882,120.818C209.218,121.039 208.483,120.877 207.988,120.382L195.094,107.492C194.226,106.623 194.456,105.16 195.568,104.638C204.941,100.236 215.404,97.776 226.426,97.776ZM253.369,141.449C253.899,141.25 254.374,141.345 254.786,141.735C255.062,142.002 255.351,142.45 255.157,143.088L248.611,161.009L246.642,166.405L244.673,171.797L240.309,183.746C240.126,184.249 239.729,184.644 239.226,184.827L228.006,188.894L222.605,190.849L217.201,192.81L198.872,199.45C198.329,199.645 197.849,199.536 197.441,199.124C197.034,198.712 196.934,198.228 197.142,197.689L204.032,179.641L206.065,174.313L208.102,168.985L212.439,157.622C212.623,157.139 213.005,156.758 213.488,156.575L225.063,152.182L230.4,150.159L235.737,148.135L253.369,141.449ZM226.426,162.96C222.175,162.96 218.731,166.405 218.73,170.656C218.73,174.906 222.175,178.351 226.426,178.351C230.676,178.351 234.121,174.906 234.121,170.656C234.121,166.405 230.676,162.96 226.426,162.96ZM163.627,93C165.08,93 166.442,93.566 167.47,94.589L198.863,125.982L213.958,141.08C214.887,142.01 214.548,143.588 213.319,144.054L204.376,147.444C203.892,147.628 203.51,148.009 203.326,148.491L199.977,157.259C199.509,158.485 197.933,158.821 197.005,157.893L150.585,111.473C148.472,109.355 148.471,105.91 150.585,103.792L159.788,94.589C160.811,93.566 162.174,93 163.627,93Z" style="fill:rgb(251,252,248);fill-rule:nonzero;"/>
    </g>
    <g transform="matrix(1,0,0,1,-149,-93)">
        <path d="M339.458,164.57L339.458,114.529L358.223,114.529C362.068,114.529 365.293,115.197 367.899,116.533C370.522,117.868 372.501,119.742 373.837,122.153C375.189,124.547 375.865,127.341 375.865,130.533C375.865,133.742 375.181,136.528 373.812,138.89C372.46,141.235 370.465,143.052 367.826,144.339C365.187,145.609 361.945,146.244 358.101,146.244L344.736,146.244L344.736,138.719L356.88,138.719C359.127,138.719 360.968,138.409 362.402,137.79C363.835,137.155 364.894,136.235 365.578,135.029C366.278,133.807 366.629,132.309 366.629,130.533C366.629,128.758 366.278,127.243 365.578,125.989C364.878,124.718 363.811,123.757 362.377,123.105C360.944,122.438 359.095,122.104 356.831,122.104L348.523,122.104L348.523,164.57L339.458,164.57ZM365.309,141.895L377.697,164.57L367.582,164.57L355.413,141.895L365.309,141.895ZM399.895,165.303C396.133,165.303 392.883,164.521 390.146,162.957C387.426,161.377 385.333,159.145 383.867,156.262C382.401,153.363 381.668,149.95 381.668,146.024C381.668,142.164 382.401,138.776 383.867,135.86C385.349,132.928 387.418,130.647 390.073,129.018C392.728,127.373 395.848,126.551 399.431,126.551C401.744,126.551 403.927,126.925 405.98,127.675C408.048,128.408 409.873,129.548 411.453,131.095C413.049,132.643 414.303,134.614 415.216,137.008C416.128,139.387 416.584,142.221 416.584,145.511L416.584,148.224L385.822,148.224L385.822,142.262L408.105,142.262C408.089,140.568 407.722,139.061 407.006,137.741C406.289,136.406 405.287,135.355 404,134.589C402.73,133.824 401.247,133.441 399.553,133.441C397.745,133.441 396.157,133.881 394.789,134.76C393.42,135.624 392.354,136.764 391.588,138.181C390.839,139.582 390.456,141.121 390.44,142.799L390.44,148.004C390.44,150.186 390.839,152.06 391.637,153.623C392.435,155.171 393.551,156.36 394.984,157.191C396.418,158.005 398.095,158.412 400.018,158.412C401.304,158.412 402.469,158.233 403.512,157.875C404.554,157.5 405.458,156.955 406.224,156.238C406.989,155.521 407.568,154.633 407.959,153.575L416.217,154.503C415.696,156.686 414.702,158.592 413.236,160.221C411.787,161.833 409.93,163.087 407.665,163.983C405.401,164.863 402.811,165.303 399.895,165.303ZM440.437,165.303C436.691,165.303 433.474,164.48 430.786,162.835C428.115,161.19 426.054,158.917 424.604,156.018C423.171,153.102 422.454,149.747 422.454,145.951C422.454,142.139 423.187,138.776 424.653,135.86C426.119,132.928 428.188,130.647 430.859,129.018C433.547,127.373 436.724,126.551 440.389,126.551C443.435,126.551 446.131,127.113 448.476,128.237C450.838,129.344 452.72,130.916 454.12,132.952C455.521,134.972 456.32,137.334 456.515,140.038L448.061,140.038C447.719,138.23 446.904,136.723 445.617,135.518C444.347,134.296 442.645,133.685 440.511,133.685C438.703,133.685 437.114,134.174 435.746,135.151C434.378,136.112 433.311,137.497 432.545,139.305C431.796,141.113 431.421,143.28 431.421,145.805C431.421,148.362 431.796,150.561 432.545,152.402C433.295,154.226 434.345,155.635 435.697,156.629C437.066,157.606 438.67,158.095 440.511,158.095C441.814,158.095 442.979,157.85 444.005,157.362C445.047,156.857 445.919,156.132 446.619,155.187C447.32,154.242 447.8,153.094 448.061,151.742L456.515,151.742C456.303,154.397 455.521,156.751 454.169,158.803C452.817,160.84 450.977,162.436 448.647,163.592C446.318,164.733 443.581,165.303 440.437,165.303ZM480.149,165.303C476.484,165.303 473.307,164.497 470.619,162.884C467.932,161.271 465.847,159.015 464.364,156.116C462.898,153.216 462.165,149.828 462.165,145.951C462.165,142.074 462.898,138.678 464.364,135.762C465.847,132.846 467.932,130.582 470.619,128.97C473.307,127.357 476.484,126.551 480.149,126.551C483.814,126.551 486.99,127.357 489.678,128.97C492.366,130.582 494.443,132.846 495.909,135.762C497.391,138.678 498.132,142.074 498.132,145.951C498.132,149.828 497.391,153.216 495.909,156.116C494.443,159.015 492.366,161.271 489.678,162.884C486.99,164.497 483.814,165.303 480.149,165.303ZM480.198,158.217C482.185,158.217 483.846,157.671 485.182,156.58C486.518,155.472 487.511,153.99 488.163,152.133C488.831,150.276 489.165,148.207 489.165,145.927C489.165,143.63 488.831,141.553 488.163,139.696C487.511,137.823 486.518,136.332 485.182,135.225C483.846,134.117 482.185,133.563 480.198,133.563C478.161,133.563 476.467,134.117 475.115,135.225C473.78,136.332 472.778,137.823 472.11,139.696C471.458,141.553 471.133,143.63 471.133,145.927C471.133,148.207 471.458,150.276 472.11,152.133C472.778,153.99 473.78,155.472 475.115,156.58C476.467,157.671 478.161,158.217 480.198,158.217ZM537.886,127.039L524.521,164.57L514.747,164.57L501.382,127.039L510.813,127.039L519.439,154.918L519.829,154.918L528.479,127.039L537.886,127.039ZM559.345,165.303C555.582,165.303 552.333,164.521 549.596,162.957C546.876,161.377 544.783,159.145 543.317,156.262C541.851,153.363 541.118,149.95 541.118,146.024C541.118,142.164 541.851,138.776 543.317,135.86C544.799,132.928 546.868,130.647 549.523,129.018C552.178,127.373 555.297,126.551 558.881,126.551C561.194,126.551 563.377,126.925 565.429,127.675C567.498,128.408 569.322,129.548 570.902,131.095C572.499,132.643 573.753,134.614 574.665,137.008C575.578,139.387 576.034,142.221 576.034,145.511L576.034,148.224L545.271,148.224L545.271,142.262L567.555,142.262C567.539,140.568 567.172,139.061 566.456,137.741C565.739,136.406 564.737,135.355 563.45,134.589C562.18,133.824 560.697,133.441 559.003,133.441C557.195,133.441 555.607,133.881 554.239,134.76C552.87,135.624 551.803,136.764 551.038,138.181C550.288,139.582 549.906,141.121 549.889,142.799L549.889,148.004C549.889,150.186 550.288,152.06 551.087,153.623C551.885,155.171 553.001,156.36 554.434,157.191C555.867,158.005 557.545,158.412 559.467,158.412C560.754,158.412 561.919,158.233 562.961,157.875C564.004,157.5 564.908,156.955 565.674,156.238C566.439,155.521 567.017,154.633 567.408,153.575L575.667,154.503C575.146,156.686 574.152,158.592 572.686,160.221C571.236,161.833 569.379,163.087 567.115,163.983C564.851,164.863 562.261,165.303 559.345,165.303ZM583.516,164.57L583.516,127.039L592.093,127.039L592.093,133.294L592.484,133.294C593.168,131.128 594.341,129.458 596.002,128.285C597.68,127.096 599.594,126.502 601.744,126.502C602.233,126.502 602.779,126.526 603.381,126.575C604,126.608 604.513,126.665 604.921,126.746L604.921,134.883C604.546,134.752 603.951,134.638 603.137,134.541C602.339,134.426 601.565,134.369 600.816,134.369C599.203,134.369 597.753,134.72 596.466,135.42C595.196,136.104 594.194,137.057 593.461,138.279C592.728,139.501 592.362,140.91 592.362,142.506L592.362,164.57L583.516,164.57ZM617.437,178.644C616.232,178.644 615.116,178.546 614.089,178.351C613.08,178.171 612.273,177.96 611.671,177.715L613.723,170.825C615.01,171.2 616.158,171.379 617.168,171.362C618.178,171.346 619.066,171.029 619.831,170.41C620.613,169.807 621.273,168.797 621.811,167.38L622.568,165.352L608.958,127.039L618.341,127.039L626.991,155.383L627.382,155.383L636.056,127.039L645.463,127.039L630.436,169.115C629.735,171.102 628.807,172.804 627.65,174.221C626.494,175.655 625.077,176.746 623.399,177.495C621.737,178.261 619.75,178.644 617.437,178.644ZM382.291,194.413L373.153,194.413C372.892,192.914 372.411,191.587 371.711,190.43C371.01,189.257 370.139,188.264 369.096,187.449C368.054,186.635 366.865,186.024 365.529,185.617C364.21,185.193 362.784,184.981 361.253,184.981C358.533,184.981 356.122,185.666 354.021,187.034C351.919,188.386 350.274,190.373 349.085,192.996C347.896,195.602 347.301,198.787 347.301,202.549C347.301,206.377 347.896,209.603 349.085,212.225C350.29,214.832 351.936,216.803 354.021,218.138C356.122,219.458 358.525,220.117 361.229,220.117C362.727,220.117 364.128,219.922 365.431,219.531C366.751,219.124 367.932,218.529 368.974,217.747C370.033,216.965 370.921,216.004 371.638,214.864C372.371,213.724 372.876,212.421 373.153,210.955L382.291,211.004C381.949,213.382 381.208,215.613 380.067,217.699C378.943,219.784 377.469,221.624 375.645,223.221C373.82,224.801 371.686,226.039 369.243,226.935C366.8,227.814 364.088,228.254 361.107,228.254C356.708,228.254 352.783,227.236 349.329,225.2C345.876,223.164 343.156,220.223 341.168,216.379C339.181,212.535 338.188,207.925 338.188,202.549C338.188,197.158 339.189,192.548 341.193,188.72C343.197,184.876 345.925,181.935 349.378,179.899C352.832,177.863 356.741,176.845 361.107,176.845C363.892,176.845 366.482,177.236 368.877,178.018C371.271,178.8 373.405,179.948 375.278,181.463C377.152,182.962 378.691,184.802 379.896,186.985C381.118,189.152 381.916,191.628 382.291,194.413ZM406.572,228.303C402.907,228.303 399.731,227.497 397.043,225.884C394.355,224.271 392.27,222.015 390.788,219.116C389.322,216.216 388.589,212.828 388.589,208.951C388.589,205.074 389.322,201.678 390.788,198.762C392.27,195.846 394.355,193.582 397.043,191.97C399.731,190.357 402.907,189.551 406.572,189.551C410.237,189.551 413.414,190.357 416.101,191.97C418.789,193.582 420.866,195.846 422.332,198.762C423.814,201.678 424.555,205.074 424.555,208.951C424.555,212.828 423.814,216.216 422.332,219.116C420.866,222.015 418.789,224.271 416.101,225.884C413.414,227.497 410.237,228.303 406.572,228.303ZM406.621,221.217C408.608,221.217 410.27,220.671 411.605,219.58C412.941,218.472 413.935,216.99 414.586,215.133C415.254,213.276 415.588,211.207 415.588,208.927C415.588,206.63 415.254,204.553 414.586,202.696C413.935,200.823 412.941,199.332 411.605,198.225C410.27,197.117 408.608,196.563 406.621,196.563C404.585,196.563 402.891,197.117 401.539,198.225C400.203,199.332 399.201,200.823 398.533,202.696C397.882,204.553 397.556,206.63 397.556,208.927C397.556,211.207 397.882,213.276 398.533,215.133C399.201,216.99 400.203,218.472 401.539,219.58C402.891,220.671 404.585,221.217 406.621,221.217ZM432.063,227.57L432.063,190.039L440.517,190.039L440.517,196.417L440.957,196.417C441.739,194.266 443.034,192.589 444.842,191.383C446.65,190.161 448.808,189.551 451.317,189.551C453.858,189.551 456,190.17 457.743,191.408C459.502,192.629 460.74,194.299 461.457,196.417L461.848,196.417C462.678,194.332 464.079,192.67 466.05,191.432C468.038,190.178 470.391,189.551 473.112,189.551C476.565,189.551 479.383,190.642 481.566,192.825C483.749,195.008 484.84,198.192 484.84,202.378L484.84,227.57L475.971,227.57L475.971,203.747C475.971,201.417 475.352,199.715 474.114,198.64C472.876,197.549 471.361,197.003 469.569,197.003C467.435,197.003 465.765,197.671 464.56,199.007C463.371,200.326 462.776,202.045 462.776,204.162L462.776,227.57L454.102,227.57L454.102,203.38C454.102,201.442 453.516,199.894 452.343,198.738C451.186,197.581 449.671,197.003 447.798,197.003C446.528,197.003 445.371,197.329 444.329,197.98C443.286,198.616 442.455,199.52 441.836,200.692C441.217,201.849 440.908,203.201 440.908,204.749L440.908,227.57L432.063,227.57ZM493.813,241.644L493.813,190.039L502.512,190.039L502.512,196.246L503.025,196.246C503.481,195.333 504.125,194.364 504.955,193.338C505.786,192.295 506.91,191.408 508.327,190.675C509.744,189.925 511.552,189.551 513.752,189.551C516.651,189.551 519.265,190.292 521.595,191.774C523.94,193.24 525.797,195.415 527.166,198.298C528.55,201.165 529.243,204.683 529.243,208.853C529.243,212.975 528.567,216.477 527.215,219.36C525.863,222.243 524.022,224.442 521.693,225.957C519.363,227.472 516.724,228.23 513.776,228.23C511.626,228.23 509.842,227.871 508.425,227.154C507.008,226.438 505.867,225.574 505.004,224.564C504.157,223.538 503.497,222.569 503.025,221.657L502.659,221.657L502.659,241.644L493.813,241.644ZM502.487,208.805C502.487,211.232 502.83,213.357 503.514,215.182C504.214,217.006 505.216,218.432 506.519,219.458C507.839,220.468 509.435,220.973 511.308,220.973C513.263,220.973 514.9,220.451 516.219,219.409C517.539,218.35 518.532,216.908 519.2,215.084C519.884,213.243 520.227,211.15 520.227,208.805C520.227,206.475 519.893,204.406 519.225,202.598C518.557,200.79 517.563,199.373 516.244,198.347C514.924,197.321 513.279,196.807 511.308,196.807C509.419,196.807 507.814,197.304 506.495,198.298C505.175,199.292 504.173,200.684 503.489,202.476C502.821,204.268 502.487,206.377 502.487,208.805ZM547.617,228.327C545.239,228.327 543.097,227.904 541.191,227.057C539.301,226.193 537.803,224.923 536.695,223.245C535.604,221.567 535.058,219.498 535.058,217.039C535.058,214.921 535.449,213.17 536.231,211.785C537.013,210.401 538.08,209.293 539.432,208.462C540.784,207.632 542.307,207.005 544.001,206.581C545.711,206.141 547.478,205.824 549.303,205.628C551.502,205.4 553.286,205.196 554.654,205.017C556.022,204.822 557.016,204.529 557.635,204.138C558.27,203.73 558.588,203.103 558.588,202.256L558.588,202.11C558.588,200.269 558.042,198.844 556.951,197.834C555.859,196.824 554.287,196.319 552.235,196.319C550.068,196.319 548.35,196.791 547.079,197.736C545.825,198.681 544.978,199.797 544.538,201.083L536.28,199.911C536.931,197.63 538.006,195.724 539.505,194.193C541.003,192.646 542.836,191.489 545.003,190.723C547.169,189.942 549.564,189.551 552.186,189.551C553.994,189.551 555.794,189.762 557.586,190.186C559.378,190.609 561.015,191.31 562.497,192.287C563.98,193.248 565.169,194.56 566.065,196.221C566.977,197.883 567.433,199.959 567.433,202.452L567.433,227.57L558.93,227.57L558.93,222.414L558.637,222.414C558.099,223.457 557.342,224.434 556.364,225.346C555.403,226.242 554.19,226.967 552.724,227.521C551.274,228.059 549.572,228.327 547.617,228.327ZM549.914,221.828C551.689,221.828 553.229,221.478 554.532,220.777C555.835,220.06 556.837,219.116 557.537,217.943C558.254,216.77 558.612,215.491 558.612,214.107L558.612,209.684C558.335,209.912 557.863,210.124 557.195,210.319C556.543,210.515 555.81,210.686 554.996,210.833C554.182,210.979 553.375,211.109 552.577,211.224C551.779,211.338 551.087,211.435 550.5,211.517C549.181,211.696 548,211.989 546.957,212.396C545.915,212.804 545.092,213.374 544.489,214.107C543.887,214.823 543.585,215.752 543.585,216.892C543.585,218.521 544.18,219.751 545.369,220.582C546.558,221.412 548.073,221.828 549.914,221.828ZM605.99,199.959L597.926,200.839C597.698,200.025 597.299,199.259 596.729,198.542C596.175,197.826 595.426,197.247 594.481,196.807C593.536,196.368 592.38,196.148 591.012,196.148C589.171,196.148 587.623,196.547 586.369,197.345C585.131,198.143 584.52,199.178 584.537,200.448C584.52,201.54 584.919,202.427 585.734,203.111C586.565,203.796 587.933,204.358 589.839,204.797L596.24,206.166C599.792,206.931 602.43,208.145 604.157,209.806C605.9,211.468 606.78,213.642 606.796,216.33C606.78,218.692 606.087,220.777 604.719,222.585C603.367,224.377 601.486,225.778 599.075,226.788C596.664,227.798 593.895,228.303 590.767,228.303C586.174,228.303 582.476,227.342 579.674,225.42C576.873,223.481 575.203,220.785 574.665,217.332L583.29,216.501C583.681,218.195 584.512,219.474 585.783,220.337C587.053,221.201 588.707,221.632 590.743,221.632C592.844,221.632 594.53,221.201 595.801,220.337C597.088,219.474 597.731,218.407 597.731,217.137C597.731,216.061 597.316,215.174 596.485,214.473C595.67,213.773 594.4,213.235 592.673,212.861L586.271,211.517C582.671,210.767 580.008,209.505 578.282,207.729C576.555,205.938 575.7,203.673 575.716,200.937C575.7,198.624 576.327,196.62 577.597,194.926C578.884,193.216 580.668,191.896 582.948,190.968C585.245,190.023 587.892,189.551 590.889,189.551C595.288,189.551 598.749,190.487 601.274,192.361C603.815,194.234 605.387,196.767 605.99,199.959ZM643.752,199.959L635.689,200.839C635.461,200.025 635.062,199.259 634.492,198.542C633.938,197.826 633.189,197.247 632.244,196.807C631.299,196.368 630.143,196.148 628.774,196.148C626.934,196.148 625.386,196.547 624.132,197.345C622.894,198.143 622.283,199.178 622.299,200.448C622.283,201.54 622.682,202.427 623.497,203.111C624.327,203.796 625.696,204.358 627.601,204.797L634.003,206.166C637.554,206.931 640.193,208.145 641.92,209.806C643.663,211.468 644.542,213.642 644.559,216.33C644.542,218.692 643.85,220.777 642.482,222.585C641.13,224.377 639.248,225.778 636.837,226.788C634.427,227.798 631.657,228.303 628.53,228.303C623.936,228.303 620.239,227.342 617.437,225.42C614.635,223.481 612.966,220.785 612.428,217.332L621.053,216.501C621.444,218.195 622.275,219.474 623.545,220.337C624.816,221.201 626.469,221.632 628.506,221.632C630.607,221.632 632.293,221.201 633.563,220.337C634.85,219.474 635.494,218.407 635.494,217.137C635.494,216.061 635.078,215.174 634.247,214.473C633.433,213.773 632.162,213.235 630.436,212.861L624.034,211.517C620.434,210.767 617.771,209.505 616.044,207.729C614.318,205.938 613.462,203.673 613.479,200.937C613.462,198.624 614.089,196.62 615.36,194.926C616.647,193.216 618.431,191.896 620.711,190.968C623.008,190.023 625.655,189.551 628.652,189.551C633.05,189.551 636.512,190.487 639.037,192.361C641.578,194.234 643.15,196.767 643.752,199.959Z" style="fill:rgb(251,252,248);fill-rule:nonzero;"/>
    </g>
</svg>
