<svg xmlns="http://www.w3.org/2000/svg" id="Layer_1" version="1.1" viewBox="19.23 17.46 121.54 125.09">
  <!-- Generator: Adobe Illustrator 30.2.1, SVG Export Plug-In . SVG Version: 2.1.1 Build 1)  -->
  <path d="M140.773,79.99l-3.76-3.757v1.969h-19.101c-.761-2.484-3.073-4.293-5.806-4.293s-5.046,1.809-5.806,4.293h-14.95l.219-.622,1.081-3.062,2.579-7.29,15.225-15.222.847.847.003-4.211h-4.213l.85.85-14.74,14.737-7.9,3.088-3.002,1.176-.557.216v-14.953c2.49-.761,4.302-3.079,4.302-5.818s-1.812-5.057-4.302-5.818v-20.908h2.016l-3.755-3.757-3.76,3.757h1.945v20.908c-2.49.761-4.305,3.079-4.305,5.818s1.815,5.057,4.305,5.818v16.342l-4.045,1.584-22.157-22.154.85-.85h-4.211v4.211l.85-.85,22.193,22.193-1.472,3.971h-16.549c-.758-2.484-3.071-4.293-5.806-4.293s-5.046,1.809-5.806,4.293h-19.048v-1.969l-3.757,3.755,3.757,3.757v-1.99h19.048c.761,2.487,3.074,4.293,5.806,4.293s5.048-1.806,5.806-4.293h15.234l-.195.524-1.119,3.023-2.68,7.243-15.412,15.412-.85-.85v4.211h4.211l-.85-.85,14.642-14.639,8.457-3.162,3.041-1.137.062-.024v14.728c-2.484.761-4.293,3.073-4.293,5.806s1.809,5.046,4.293,5.806v20.943h-1.945l3.757,3.757,3.757-3.757h-2.016v-20.943c2.484-.761,4.293-3.074,4.293-5.806s-1.809-5.046-4.293-5.806v-16.057l4.273-1.596,21.926,21.926-.85.847,4.211.003v-4.213l-.847.85-21.899-21.899,1.534-4.338h16.211c.761,2.487,3.074,4.293,5.806,4.293s5.046-1.806,5.806-4.293h19.101v1.99l3.76-3.755ZM80.212,84.443c-2.401.027-4.367-1.901-4.391-4.302-.024-2.401,1.901-4.367,4.302-4.394,2.401-.024,4.367,1.904,4.394,4.305.024,2.401-1.904,4.367-4.305,4.391Z" fill="#05290c"/>
</svg>