<?xml version="1.0" encoding="UTF-8" standalone="no"?>
<!DOCTYPE svg PUBLIC "-//W3C//DTD SVG 1.1//EN" "http://www.w3.org/Graphics/SVG/1.1/DTD/svg11.dtd">
<svg width="100%" height="100%" viewBox="0 0 158 158" version="1.1" xmlns="http://www.w3.org/2000/svg" xmlns:xlink="http://www.w3.org/1999/xlink" xml:space="preserve" xmlns:serif="http://www.serif.com/" style="fill-rule:evenodd;clip-rule:evenodd;stroke-linejoin:round;stroke-miterlimit:2;">
    <g transform="matrix(1,0,0,1,0.000125,0)">
        <g transform="matrix(1,0,0,1,-149,-93)">
            <path d="M300.56,229.933C301.076,229.933 301.597,230.006 302.094,230.15C302.941,230.399 303.733,230.856 304.398,231.522L304.548,231.667C306.146,233.265 306.54,235.619 305.72,237.588C305.458,238.23 305.068,238.828 304.548,239.348L295.345,248.551C294.834,249.062 294.237,249.46 293.587,249.728L293.582,249.728C293.58,249.728 293.579,249.729 293.577,249.729C292.926,250 292.23,250.14 291.507,250.14C290.054,250.14 288.691,249.574 287.668,248.551L287.518,248.402C286.853,247.736 286.396,246.935 286.147,246.093C285.608,244.246 286.065,242.173 287.518,240.72L296.717,231.522C297.776,230.463 299.166,229.933 300.56,229.933ZM176.268,151.877C176.766,152.375 176.927,153.116 176.7,153.783C174.895,159.079 173.916,164.757 173.916,170.656C173.916,199.608 197.473,223.165 226.426,223.165C232.325,223.165 238.002,222.187 243.298,220.382C243.965,220.154 244.707,220.316 245.205,220.814L258.065,233.674C258.931,234.54 258.705,235.998 257.598,236.524C248.143,241.019 237.574,243.536 226.426,243.536C208.385,243.536 191.855,236.948 179.116,226.053C178.51,225.535 177.639,225.456 176.959,225.873L168.353,231.155C167.135,231.902 165.736,230.503 166.483,229.286L170.449,222.821L172.445,219.571L173.839,217.303C173.852,217.281 173.883,217.238 173.884,217.236L177.071,211.994C177.306,211.604 176.881,211.147 176.474,211.36L170.202,214.613C169.427,215.015 168.473,214.808 167.951,214.108C158.906,201.97 153.546,186.928 153.546,170.656C153.546,159.508 156.062,148.939 160.557,139.483C161.083,138.377 162.542,138.15 163.408,139.017L176.268,151.877ZM271.1,198.223L295.829,222.952C296.83,223.953 296.345,225.733 295.135,226.471C294.443,226.892 293.791,227.402 293.195,228L283.996,237.198C283.408,237.789 282.898,238.437 282.473,239.131C281.732,240.34 279.945,240.828 278.941,239.825L268.936,229.82L254.27,215.153L239.209,200.096C238.271,199.159 238.626,197.565 239.872,197.113L248.397,194.025C248.9,193.843 249.297,193.447 249.481,192.944L252.879,183.643C253.333,182.4 254.924,182.048 255.86,182.984L271.1,198.223ZM226.426,97.776C244.885,97.776 261.767,104.67 274.62,116.028C275.226,116.563 276.111,116.65 276.8,116.227L283.897,111.872C285.115,111.125 286.513,112.523 285.766,113.741L280.687,122.017C280.679,122.03 280.686,122.051 280.696,122.063C280.704,122.073 280.701,122.083 280.694,122.094L276.5,128.996C276.26,129.385 276.69,129.843 277.093,129.63L282.676,126.735C283.451,126.333 284.406,126.54 284.927,127.241C293.955,139.374 299.306,154.402 299.306,170.656C299.306,181.677 296.846,192.14 292.447,201.513C291.925,202.625 290.462,202.856 289.593,201.987L276.7,189.094C276.205,188.599 276.042,187.863 276.264,187.199C277.998,181.994 278.936,176.432 278.936,170.656C278.936,141.703 255.379,118.146 226.426,118.146C220.65,118.146 215.087,119.083 209.882,120.818C209.218,121.039 208.483,120.877 207.988,120.382L195.094,107.492C194.226,106.623 194.456,105.16 195.568,104.638C204.941,100.236 215.404,97.776 226.426,97.776ZM253.369,141.449C253.899,141.25 254.374,141.345 254.786,141.735C255.062,142.002 255.351,142.45 255.157,143.088L248.611,161.009L246.642,166.405L244.673,171.797L240.309,183.746C240.126,184.249 239.729,184.644 239.226,184.827L228.006,188.894L222.605,190.849L217.201,192.81L198.872,199.45C198.329,199.645 197.849,199.536 197.441,199.124C197.034,198.712 196.934,198.228 197.142,197.689L204.032,179.641L206.065,174.313L208.102,168.985L212.439,157.622C212.623,157.139 213.005,156.758 213.488,156.575L225.063,152.182L230.4,150.159L235.737,148.135L253.369,141.449ZM226.426,162.96C222.175,162.96 218.731,166.405 218.73,170.656C218.73,174.906 222.175,178.351 226.426,178.351C230.676,178.351 234.121,174.906 234.121,170.656C234.121,166.405 230.676,162.96 226.426,162.96ZM163.627,93C165.08,93 166.442,93.566 167.47,94.589L198.863,125.982L213.958,141.08C214.887,142.01 214.548,143.588 213.319,144.054L204.376,147.444C203.892,147.628 203.51,148.009 203.326,148.491L199.977,157.259C199.509,158.485 197.933,158.821 197.005,157.893L150.585,111.473C148.472,109.355 148.471,105.91 150.585,103.792L159.788,94.589C160.811,93.566 162.174,93 163.627,93Z" style="fill:rgb(29,89,187);fill-rule:nonzero;"/>
        </g>
    </g>
</svg>
